<svg width="1920" height="1080" viewBox="0 0 1920 1080" xmlns="http://www.w3.org/2000/svg"><path d="M 0,1080 C 0,1080 0,180 0,180 C 141.4076923076923,185.5179487179487 282.8153846153846,191.03589743589743 379,186 C 475.1846153846154,180.96410256410257 526.1461538461539,165.374358974359 617,164 C 707.8538461538461,162.625641025641 838.5999999999999,175.4666666666666 947,190 C 1055.4,204.5333333333334 1141.4538461538464,220.7589743589744 1254,227 C 1366.5461538461536,233.2410256410256 1505.5846153846153,229.49743589743588 1621,220 C 1736.4153846153847,210.50256410256412 1828.2076923076925,195.25128205128206 1920,180 C 1920,180 1920,1080 1920,1080 Z" fill="#e63b7a" opacity="0.09999999999999999"/><path d="M 0,1080 C 0,1080 0,360 0,360 C 92.19487179487177,376.37948717948717 184.38974358974355,392.75897435897434 298,386 C 411.61025641025645,379.24102564102566 546.6358974358975,349.3435897435898 645,347 C 743.3641025641025,344.6564102564102 805.0666666666667,369.8666666666666 905,385 C 1004.9333333333333,400.1333333333334 1143.0974358974358,405.18974358974356 1276,411 C 1408.9025641025642,416.81025641025644 1536.5435897435896,423.374358974359 1643,415 C 1749.4564102564104,406.625641025641 1834.7282051282052,383.3128205128205 1920,360 C 1920,360 1920,1080 1920,1080 Z" fill="#e63b7a" opacity="0.19999999999999998"/><path d="M 0,1080 C 0,1080 0,540 0,540 C 130.18974358974359,545.9692307692308 260.37948717948717,551.9384615384615 372,560 C 483.62051282051283,568.0615384615385 576.6717948717949,578.2153846153847 671,573 C 765.3282051282051,567.7846153846153 860.9333333333334,547.1999999999999 972,544 C 1083.0666666666666,540.8000000000001 1209.5948717948718,554.9846153846154 1317,566 C 1424.4051282051282,577.0153846153846 1512.6871794871797,584.8615384615385 1610,580 C 1707.3128205128203,575.1384615384615 1813.6564102564103,557.5692307692307 1920,540 C 1920,540 1920,1080 1920,1080 Z" fill="#e63b7a" opacity="0.3"/><path d="M 0,1080 C 0,1080 0,720 0,720 C 101.58717948717944,715.9000000000001 203.17435897435888,711.8000000000001 327,690 C 450.8256410256411,668.1999999999999 596.8897435897437,628.6999999999999 693,652 C 789.1102564102563,675.3000000000001 835.2666666666664,761.4000000000001 942,770 C 1048.7333333333336,778.5999999999999 1216.0435897435898,709.6999999999999 1320,702 C 1423.9564102564102,694.3000000000001 1464.5589743589744,747.8 1554,761 C 1643.4410256410256,774.2 1781.7205128205128,747.1 1920,720 C 1920,720 1920,1080 1920,1080 Z" fill="#e63b7a" opacity="0.39999999999999997"/><path d="M 0,1080 C 0,1080 0,900 0,900 C 102.7051282051282,936.9487179487179 205.4102564102564,973.8974358974358 302,965 C 398.5897435897436,956.1025641025642 489.06410256410254,901.3589743589745 586,887 C 682.9358974358975,872.6410256410255 786.3333333333335,898.6666666666665 910,906 C 1033.6666666666665,913.3333333333335 1177.602564102564,901.9743589743589 1283,909 C 1388.397435897436,916.0256410256411 1455.2564102564104,941.4358974358975 1555,943 C 1654.7435897435896,944.5641025641025 1787.371794871795,922.2820512820513 1920,900 C 1920,900 1920,1080 1920,1080 Z" fill="#e63b7a" opacity="0.49999999999999994"/></svg>